<svg id="dds__icon--user-cir-remove" viewbox="0 0 32 32" xmlns="http://www.w3.org/2000/svg"><title>dds__icon--user-cir-remove</title><path d="M31.64 12.62h-2.22c0.276 1.013 0.436 2.177 0.44 3.378v0.002c0 0.004 0 0.010 0 0.015 0 3.346-1.185 6.414-3.159 8.809l0.019-0.024c-0.926-2.252-2.443-4.103-4.359-5.413l-0.041-0.027-0.66-0.42-0.6 0.5c-1.374 1.102-3.139 1.769-5.060 1.769s-3.686-0.667-5.076-1.782l0.016 0.012-0.6-0.5-0.66 0.42c-1.945 1.342-3.458 3.183-4.37 5.34l-0.030 0.080c-1.952-2.37-3.136-5.437-3.136-8.78 0-7.653 6.203-13.858 13.855-13.86h0c1.21 0.004 2.381 0.164 3.495 0.462l-0.095-0.022v-2.22c-1.020-0.223-2.193-0.354-3.396-0.36l-0.004-0c-8.837 0-16 7.163-16 16s7.163 16 16 16c8.837 0 16-7.163 16-16v0c-0.007-1.201-0.138-2.367-0.38-3.492l0.020 0.112zM6.94 26.46c0.644-1.965 1.788-3.619 3.283-4.866l0.017-0.014c1.614 1.108 3.61 1.769 5.76 1.769s4.146-0.661 5.795-1.792l-0.035 0.023c1.508 1.269 2.655 2.919 3.297 4.804l0.023 0.076c-2.411 2.111-5.59 3.399-9.070 3.399s-6.659-1.288-9.086-3.413l0.016 0.014zM21.54 4.18h10.46v2.12h-10.46zM9.26 13.36c-0 0.006-0 0.013-0 0.020 0 3.722 3.018 6.74 6.74 6.74s6.74-3.018 6.74-6.74c0-3.722-3.018-6.74-6.74-6.74v0c0 0-0 0-0 0-3.715 0-6.729 3.006-6.74 6.719v0.001zM20.62 13.36c0 0.012 0 0.026 0 0.040 0 2.552-2.068 4.62-4.62 4.62s-4.62-2.068-4.62-4.62c0-2.552 2.068-4.62 4.62-4.62v0c0 0 0 0 0 0 2.538 0 4.597 2.046 4.62 4.578v0.002z"/></svg>