<svg width="19" height="21" viewBox="0 0 19 21" fill="none" xmlns="http://www.w3.org/2000/svg">
<path d="M9.4275 20.5C7.90875 20.5 6.6775 19.2688 6.6775 17.75V17.15H12.1775V17.75C12.1706 19.2656 10.9431 20.4931 9.4275 20.5ZM7.9775 18.3625C8.21875 18.9325 8.77375 19.325 9.42 19.325C9.4225 19.325 9.425 19.325 9.4275 19.325H9.42687C10.0644 19.3231 10.6119 18.9362 10.8481 18.385L10.8519 18.375H7.97687L7.9775 18.3625ZM17.9775 16.075H0.84C0.464375 16.0725 0.144375 15.8369 0.016875 15.5063L0.015 15.5C0.00562499 15.4494 0 15.3906 0 15.3312C0 15.2719 0.00562498 15.2131 0.015625 15.1569L0.015 15.1625C0.015 15.16 0.015 15.1575 0.015 15.155C0.015 14.9094 0.105 14.6844 0.25375 14.5112L0.2525 14.5125L3.315 11.475V6.6125C3.315 3.23687 6.05187 0.5 9.4275 0.5C12.8031 0.5 15.54 3.23687 15.54 6.6125V11.475L18.64 14.55C18.795 14.7169 18.89 14.9412 18.89 15.1875C18.89 15.1919 18.89 15.1962 18.89 15.2006C18.8956 15.2437 18.8994 15.2931 18.8994 15.3438C18.8994 15.3944 18.8962 15.4444 18.8894 15.4931L18.89 15.4875C18.7669 15.8387 18.4387 16.0863 18.0525 16.0875L17.9775 16.075ZM1.465 14.825H17.3525L14.315 11.75V6.675C14.315 3.97563 12.1269 1.7875 9.4275 1.7875C6.72813 1.7875 4.54 3.97563 4.54 6.675V11.75L1.465 14.825Z" fill="#0E0E0E"/>
</svg>
