<svg width="98" height="57" viewBox="0 0 98 57" fill="none" xmlns="http://www.w3.org/2000/svg">
<path d="M98 25.527V31.3796H79.3494V1.96122H85.9031V25.527H98ZM11.7294 31.3796C14.9125 31.3798 18.0067 30.3121 20.5318 28.342C23.0569 26.3719 24.8716 23.6096 25.6944 20.4839L42.0175 33.4965L58.3713 20.515V31.5041H77.0831V25.527H65.0169V1.96122H58.4325V12.9192L42.875 25.3714L39.3837 22.5696L55.0331 10.1174L50.2556 6.47515L34.5756 18.9274L31.0538 16.0322L46.7337 3.58001L42.0788 0L25.7556 12.9192C24.9279 9.7878 23.1086 7.02074 20.5788 5.04569C18.0491 3.07064 14.9498 1.99757 11.76 1.99235H0V31.3796H11.7294ZM6.615 25.527V7.81376H11.7906C13.9899 7.93451 16.0526 8.93572 17.5276 10.5984C19.0026 12.2611 19.7697 14.4498 19.6613 16.686C19.7696 18.919 19.0015 21.1043 17.5257 22.7621C16.05 24.4198 13.9872 25.4143 11.7906 25.527H6.615ZM98 50.2758C98 48.5325 97.0506 47.7542 95.1212 47.3495C93.1919 46.9448 92.0587 46.7581 92.0587 45.3883C92.0587 44.0186 92.8244 43.8318 94.1719 43.8318C95.5194 43.8318 96.4688 44.6101 96.4688 45.6062L96.6525 45.793H97.4181L97.6325 45.6062C97.6325 43.645 96.1012 42.8667 94.1719 42.8667C92.2425 42.8667 90.895 44.0497 90.895 45.3883C90.895 46.7269 92.0588 47.7542 93.9575 48.1278C95.8563 48.5014 96.8363 48.7193 96.8363 50.2758C96.8363 51.272 96.2544 52.0502 94.325 52.0502C92.3956 52.0502 91.875 51.1163 91.875 49.9645L91.6913 49.7777H90.895L90.7113 49.9645C90.7113 51.7078 92.0281 53.0776 94.3556 53.0776C96.6831 53.0776 98 51.8946 98 50.2758ZM89.7006 48.3146L89.8844 48.1278V47.5363C89.9565 46.9287 89.9009 46.3125 89.7215 45.7284C89.542 45.1442 89.2427 44.6054 88.8433 44.1475C88.4439 43.6896 87.9535 43.323 87.4044 43.0719C86.8554 42.8209 86.2602 42.6911 85.6581 42.6911C85.0561 42.6911 84.4609 42.8209 83.9118 43.0719C83.3628 43.323 82.8724 43.6896 82.4729 44.1475C82.0735 44.6054 81.7742 45.1442 81.5948 45.7284C81.4153 46.3125 81.3598 46.9287 81.4319 47.5363V47.9099C81.3352 48.5455 81.3742 49.1948 81.5462 49.8138C81.7182 50.4327 82.0193 51.0068 82.4289 51.497C82.8385 51.9872 83.3471 52.3821 83.9202 52.6548C84.4932 52.9275 85.1173 53.0717 85.75 53.0776H86.1175C86.9432 53.1121 87.7546 52.8504 88.4096 52.3382C89.0647 51.826 89.5217 51.0959 89.7006 50.2758L89.5169 50.089H88.8125L88.6288 50.2758C88.4914 50.8381 88.1722 51.3371 87.7223 51.6928C87.2724 52.0485 86.718 52.2401 86.1481 52.237H85.9337C85.49 52.2251 85.053 52.1233 84.6484 51.9376C84.2438 51.7519 83.8797 51.4861 83.5774 51.1556C83.2751 50.8251 83.0407 50.4367 82.8879 50.013C82.7351 49.5893 82.667 49.1389 82.6875 48.6881L82.9019 48.5014L89.7006 48.3146ZM88.5675 47.3495H82.6875V47.1628C82.6875 46.3371 83.0101 45.5453 83.5845 44.9615C84.1588 44.3777 84.9378 44.0497 85.75 44.0497C86.5622 44.0497 87.3412 44.3777 87.9155 44.9615C88.4899 45.5453 88.8125 46.3371 88.8125 47.1628L88.5675 47.3495ZM80.0844 52.6106V43.2714L79.9006 43.0847H79.135L78.9513 43.2714V52.6106L79.135 52.7974H79.9006L80.0844 52.6106ZM80.0844 41.2791V40.1273L79.9006 39.9405H79.135L78.9513 40.1273V41.3102L79.135 41.497H79.9006L80.0844 41.2791ZM72.8263 52.0502C70.8969 52.0502 69.7638 50.6805 69.7638 47.8788C69.7638 45.077 70.9275 43.7384 72.8263 43.7384C74.725 43.7384 75.8888 45.1081 75.8888 47.8788C75.8888 50.6494 74.725 52.1125 72.8263 52.1125V52.0502ZM75.8888 51.4588C75.8888 54.0115 75.3069 55.9416 73.01 55.9416C71.2644 55.9416 70.7131 55.1633 70.4987 54.1983L70.4375 54.0737H69.6719L69.4881 54.2605C69.6719 55.817 70.8356 57 73.1325 57C75.4294 57 77.2056 55.4123 77.2056 51.521V43.3026L77.0219 43.1158H76.44L76.2562 43.3026L76.0725 44.4855H75.8581C75.5832 44.0012 75.185 43.601 74.7054 43.3271C74.2258 43.0532 73.6825 42.9157 73.1325 42.929H72.7956C70.1006 42.929 68.7225 45.077 68.7225 48.0033C68.7225 50.9296 70.07 53.0776 72.7956 53.0776H73.1325C73.6825 53.0909 74.2258 52.9534 74.7054 52.6795C75.185 52.4056 75.5832 52.0054 75.8581 51.521H76.0112L75.8888 51.4588ZM63.3938 44.0497C65.3231 44.0497 66.6706 45.6062 66.6706 48.2212C66.6706 50.8362 65.3231 52.3616 63.3938 52.3616C61.4644 52.3616 60.1475 50.805 60.1475 48.2212C60.1475 45.6374 61.495 44.0497 63.3938 44.0497ZM63.3938 53.2332C64.0278 53.2433 64.6566 53.1143 65.2372 52.855C65.8177 52.5956 66.3365 52.2121 66.758 51.7304C67.1795 51.2488 67.4938 50.6804 67.6796 50.0641C67.8653 49.4477 67.9181 48.7979 67.8344 48.1589C67.926 47.5138 67.8802 46.8563 67.6998 46.2308C67.5195 45.6053 67.2089 45.0266 66.7892 44.5339C66.3695 44.0411 65.8504 43.6459 65.2672 43.3751C64.684 43.1042 64.0503 42.964 63.4091 42.964C62.7679 42.964 62.1342 43.1042 61.551 43.3751C60.9678 43.6459 60.4487 44.0411 60.0289 44.5339C59.6092 45.0266 59.2986 45.6053 59.1183 46.2308C58.938 46.8563 58.8921 47.5138 58.9837 48.1589C58.9238 48.7832 58.9933 49.4133 59.1879 50.0085C59.3825 50.6038 59.6978 51.1509 60.1135 51.6144C60.5291 52.078 61.0358 52.4478 61.6009 52.6998C62.1659 52.9518 62.7767 53.0805 63.3938 53.0776V53.2332ZM57.6362 52.8596V39.4113L57.4525 39.2245H56.6869L56.5031 39.4113V52.704L56.6869 52.8908H57.4525L57.6362 52.8596ZM50.715 44.0497C52.6444 44.0497 53.9919 45.6062 53.9919 48.2212C53.9919 50.8362 52.6444 52.3616 50.715 52.3616C48.7856 52.3616 47.4688 50.805 47.4688 48.2212C47.4688 45.6374 48.8162 44.0497 50.715 44.0497ZM50.715 53.2332C51.3615 53.2424 52.0021 53.107 52.5914 52.8365C53.1807 52.5661 53.7043 52.1672 54.1251 51.6682C54.5459 51.1692 54.8535 50.5822 55.0263 49.9489C55.1991 49.3155 55.2328 48.6513 55.125 48.0033C55.2167 47.3582 55.1708 46.7006 54.9905 46.0751C54.8101 45.4497 54.4995 44.8709 54.0798 44.3782C53.6601 43.8855 53.141 43.4903 52.5578 43.2194C51.9746 42.9486 51.3409 42.8084 50.6997 42.8084C50.0585 42.8084 49.4248 42.9486 48.8416 43.2194C48.2584 43.4903 47.7393 43.8855 47.3196 44.3782C46.8998 44.8709 46.5893 45.4497 46.4089 46.0751C46.2286 46.7006 46.1827 47.3582 46.2744 48.0033C46.1906 48.6423 46.2434 49.2921 46.4292 49.9084C46.6149 50.5248 46.9293 51.0932 47.3508 51.5748C47.7723 52.0564 48.291 52.44 48.8716 52.6993C49.4522 52.9587 50.0809 53.0877 50.715 53.0776V53.2332ZM45.1413 52.8596V46.8203C45.2143 46.3241 45.1781 45.8177 45.0354 45.3374C44.8928 44.8572 44.6471 44.415 44.3161 44.0429C43.9852 43.6707 43.5771 43.3778 43.1214 43.1852C42.6657 42.9926 42.1736 42.9051 41.6806 42.929C41.1114 42.9253 40.5502 43.0656 40.0477 43.3373C39.5451 43.609 39.117 44.0036 38.8019 44.4855H38.5875L38.4038 43.3026L38.22 43.1158H37.6075L37.4238 43.3026V52.6417L37.6075 52.8596H38.3731L38.5875 52.6417V47.4118C38.5875 45.2638 39.5369 43.8941 41.65 43.8941C43.1813 43.8941 44.1306 44.8902 44.1306 46.8203V52.704L44.345 52.8908H45.08L45.1413 52.8596ZM35.3413 52.8596V46.8203C35.4143 46.3241 35.3781 45.8177 35.2354 45.3374C35.0928 44.8572 34.8471 44.415 34.5161 44.0429C34.1852 43.6707 33.7771 43.3778 33.3214 43.1852C32.8657 42.9926 32.3736 42.9051 31.8806 42.929H31.7275C31.1588 42.928 30.5986 43.0695 30.0965 43.341C29.5944 43.6125 29.1658 44.0056 28.8488 44.4855H28.5731V39.4113L28.3894 39.2245H27.5625V39.4113V52.704L27.7463 52.8908H28.5119L28.7262 52.704V47.4429C28.7262 45.2638 29.6756 43.9252 31.7887 43.9252C33.32 43.9252 34.2694 44.8902 34.2694 46.8514V52.704L34.4837 52.8908H35.2494L35.3413 52.8596ZM18.8344 48.0033C18.8344 45.2638 20.1819 43.8629 22.0806 43.8629H22.3563C22.9995 43.8661 23.6194 44.1085 24.099 44.5443C24.5785 44.9802 24.8846 45.5794 24.9594 46.2288L25.1737 46.4156H25.9394L26.1231 46.2288C26.0151 45.2451 25.5303 44.344 24.7738 43.7207C24.0173 43.0974 23.0499 42.8018 22.0806 42.8979C19.6 42.8979 17.6706 44.4544 17.6706 47.9721C17.6706 51.4899 19.6 53.0776 22.0806 53.0776C23.0499 53.1737 24.0173 52.8781 24.7738 52.2547C25.5303 51.6314 26.0151 50.7304 26.1231 49.7466L25.9394 49.5598H25.1737L24.9594 49.7466C24.884 50.3931 24.5769 50.9887 24.0966 51.4195C23.6163 51.8502 22.9967 52.0859 22.3563 52.0814H22.0806C20.1819 52.0814 18.8344 50.7116 18.8344 47.941V48.0033ZM16.7213 48.2835L16.905 48.0967V47.5052C16.971 46.9074 16.91 46.3022 16.7261 45.7305C16.5422 45.1587 16.2397 44.6338 15.839 44.1911C15.4384 43.7484 14.9489 43.3983 14.4037 43.1645C13.8585 42.9306 13.2703 42.8185 12.6788 42.8356C12.0829 42.832 11.493 42.9566 10.9478 43.201C10.4027 43.4455 9.91451 43.8044 9.51542 44.2542C9.11632 44.704 8.8153 45.2345 8.63212 45.8109C8.44893 46.3872 8.38772 46.9965 8.4525 47.5986V48.0033C8.36386 48.6405 8.4122 49.2897 8.5942 49.9061C8.77619 50.5226 9.0875 51.0915 9.50669 51.5739C9.92587 52.0562 10.4429 52.4404 11.0223 52.7C11.6016 52.9596 12.2295 53.0884 12.8625 53.0776H13.23C14.036 53.0732 14.8173 52.7951 15.4499 52.2874C16.0825 51.7797 16.53 51.0717 16.7213 50.2758L16.5069 50.089H15.7413L15.5575 50.2758C15.4202 50.8381 15.1009 51.3371 14.6511 51.6928C14.2012 52.0485 13.6468 52.2401 13.0769 52.237H12.8625C12.4201 52.2249 11.9843 52.1243 11.5801 51.941C11.176 51.7576 10.8113 51.4951 10.507 51.1684C10.2026 50.8417 9.96465 50.4573 9.80656 50.037C9.64847 49.6168 9.57339 49.169 9.58563 48.7193L9.8 48.5325L16.7213 48.2835ZM15.5575 47.3184H9.8L9.58563 47.1628C9.58563 46.3371 9.90828 45.5453 10.4826 44.9615C11.0569 44.3777 11.8359 44.0497 12.6481 44.0497C13.4604 44.0497 14.2393 44.3777 14.8136 44.9615C15.388 45.5453 15.7106 46.3371 15.7106 47.1628L15.5575 47.3184ZM10.3819 39.8782V39.3179H10.1981H0.18375L0 39.4113V40.0027L0.18375 40.1895H4.41L4.62437 40.3763V52.8285L4.80813 53.0153H5.57375L5.7575 52.8285V40.3763L6.125 40.1895H10.1981L10.3819 39.8782Z" fill="#0672CB"/>
</svg>
