<svg width="132" height="132" viewBox="0 0 132 132" fill="none" xmlns="http://www.w3.org/2000/svg">
<path d="M65.6256 0.199951C29.424 0.199951 0.0800781 29.5235 0.0800781 65.7C0.0800781 101.876 29.424 131.2 65.6256 131.2C101.827 131.2 131.171 101.876 131.171 65.7C131.171 29.5235 101.827 0.199951 65.6256 0.199951ZM65.6256 124.65C33.0454 124.65 6.63463 98.2575 6.63463 65.7C6.63463 33.1424 33.0454 6.74995 65.6256 6.74995C98.2058 6.74995 124.617 33.1424 124.617 65.7C124.617 98.2575 98.2058 124.65 65.6256 124.65ZM116.751 74.3787V80.11H98.1116V51.4537H104.666V74.5424L116.751 74.3787ZM30.7226 80.11C37.3919 80.1018 43.0042 75.5864 44.6674 69.4457L44.692 69.3434L61.0784 82.075L77.4648 69.3434V80.11H96.0633V74.3787H83.8554V51.2899H77.3009V62.0565L61.529 74.2968L58.0059 71.554L65.6256 65.7L73.8188 59.3137L69.1487 55.7112L53.4997 67.9924L50.0176 65.2496L65.6666 52.9684L60.9555 49.325L44.5691 62.0565C42.8813 55.8135 37.269 51.2981 30.5997 51.2899H18.9654V79.9462L30.7226 80.11ZM25.5609 74.3787V57.0212H30.6816C35.0691 57.1931 38.5635 60.7915 38.5635 65.2046C38.5635 65.3806 38.5594 65.5526 38.5471 65.7245V65.7C38.5553 65.8473 38.5635 66.0234 38.5635 66.1953C38.5635 70.6084 35.0732 74.2027 30.698 74.3746H30.6816L25.5609 74.3787Z" fill="black"/>
</svg>
