<svg width="24" height="20" viewBox="0 0 24 20" fill="none" xmlns="http://www.w3.org/2000/svg">
<path d="M11.7117 1.83737L12.071 2.17081L12.4303 1.83808C15.0053 -0.613985 19.1553 -0.611866 21.7274 1.84514C23.0903 3.14711 23.5731 4.82421 23.4903 6.43136C23.4081 8.0251 22.771 9.57998 21.851 10.7272C19.066 14.198 12.071 20 12.071 20C12.071 20 5.07526 14.198 2.29098 10.7272C1.37098 9.57998 0.733836 8.0251 0.651693 6.43136C0.568122 4.82421 1.05169 3.14711 2.41384 1.84443C4.98598 -0.612572 9.13669 -0.614692 11.7117 1.83737ZM12.071 18.1456C12.071 18.1456 18.2496 12.9441 20.7317 9.84984C21.4746 8.92299 21.9974 7.64715 22.0638 6.36001C22.1296 5.0863 21.751 3.83236 20.7353 2.86242C18.7153 0.932417 15.4396 0.931711 13.4181 2.85889L13.411 2.86595L12.071 4.10858L10.7238 2.85818C8.70241 0.931004 5.42669 0.931711 3.40669 2.86171C2.39098 3.83166 2.01241 5.08559 2.07812 6.3586C2.15491 7.62839 2.61941 8.84526 3.41026 9.84842C5.89455 12.9469 12.071 18.1456 12.071 18.1456Z" fill="#0E0E0E"/>
</svg>
